# xmcd
#
# Track frame offsets:
#	150
#	17735
#	31676
#	46379
#	59154
#	79402
#	92761
#	104941
#	115677
#	124277
#	139333
#	149847
#	159615
#	172424
#	184165
#	195240
#	208697
#	222450
#	237420
#	247014
#	259874
#	273560
#	283647
#
# Disc length: 3967 seconds
#
# Revision: 0
# Processed by: cddbd v1.4PL0 Copyright (c) Steve Scherf et al.
# Submitted via: dBpowerAMP V4.0
#
DISCID=790f7d17
DTITLE=TONICO E TINOCO - TONICO E TINOCO
DYEAR=2002
DGENRE=Country
TTITLE0=CABOCLA TEREZA
TTITLE1=CHICO MINEIRO
TTITLE2=VINGAN큐 DO CHICO MINEIRO
TTITLE3=TRISTEZA DO JECA
TTITLE4=LUAR DO SERT츒
TTITLE5=REI DO GADO
TTITLE6=MOUR츒 DA PORTEIRA
TTITLE7=ADEUS MARIANA
TTITLE8=ESTRADA DA VIDA
TTITLE9=BEIJINHO DOCE
TTITLE10=BAILE NA RO큐
TTITLE11=CANTA MO큐DA
TTITLE12=CARRO DE BOI
TTITLE13=CURITIBANA
TTITLE14=MARDITA CACHA큐
TTITLE15=MODA DA MULA PRETA
TTITLE16=MORENINHA LINDA
TTITLE17=PAINEIRA VELHA
TTITLE18=QUER툁CIA BRASILEIRA
TTITLE19=RIO PEQUENO
TTITLE20=SACO DE ESTOPA
TTITLE21=SOLDADO DE FOGO
TTITLE22=TRISTE DESPEDIDA
EXTD=
EXTT0=
EXTT1=
EXTT2=
EXTT3=
EXTT4=
EXTT5=
EXTT6=
EXTT7=
EXTT8=
EXTT9=
EXTT10=
EXTT11=
EXTT12=
EXTT13=
EXTT14=
EXTT15=
EXTT16=
EXTT17=
EXTT18=
EXTT19=
EXTT20=
EXTT21=
EXTT22=
PLAYORDER=
